<?xml version="1.0" encoding="UTF-8" standalone="no"?>
<svg
   version="1.1"
   id="Layer_1"
   x="0px"
   y="0px"
   viewBox="0 0 122.88 101.57"
   style="enable-background:new 0 0 122.88 101.57"
   xml:space="preserve"
   sodipodi:docname="icon-code-bright.svg"
   inkscape:version="1.2.2 (732a01da63, 2022-12-09)"
   xmlns:inkscape="http://www.inkscape.org/namespaces/inkscape"
   xmlns:sodipodi="http://sodipodi.sourceforge.net/DTD/sodipodi-0.dtd"
   xmlns="http://www.w3.org/2000/svg"
   xmlns:svg="http://www.w3.org/2000/svg"><defs
     id="defs9" /><sodipodi:namedview
     id="namedview7"
     pagecolor="#ffffff"
     bordercolor="#000000"
     borderopacity="0.25"
     inkscape:showpageshadow="2"
     inkscape:pageopacity="0.0"
     inkscape:pagecheckerboard="0"
     inkscape:deskcolor="#d1d1d1"
     showgrid="false"
     inkscape:zoom="8.1618588"
     inkscape:cx="41.840959"
     inkscape:cy="50.723739"
     inkscape:window-width="1920"
     inkscape:window-height="1009"
     inkscape:window-x="1912"
     inkscape:window-y="-8"
     inkscape:window-maximized="1"
     inkscape:current-layer="g4" /><g
     id="g4"><path
       d="M44.97,12.84h-17.2L0,49.37L27.77,85.9h17.2L17.2,49.37L44.97,12.84L44.97,12.84z M77.91,12.84h17.2l27.77,36.53 L95.11,85.9h-17.2l27.77-36.53L77.91,12.84L77.91,12.84z M70.17,0.04l5.96,1.39c0.94,0.22,1.52,1.16,1.31,2.1l-22.5,96.69 c-0.22,0.93-1.16,1.52-2.1,1.31l-5.95-1.39c-0.94-0.22-1.52-1.16-1.31-2.1l22.5-96.69C68.3,0.42,69.24-0.17,70.17,0.04L70.17,0.04 L70.17,0.04z"
       id="path2"
       style="fill:#00a9a9;fill-opacity:1" /></g></svg>
