<?xml version="1.0" encoding="UTF-8" standalone="no"?>
<svg
   viewBox="0 0 14 14"
   version="1.1"
   id="svg4"
   sodipodi:docname="icon-unity-dark.svg"
   inkscape:version="1.2.2 (732a01da63, 2022-12-09)"
   xmlns:inkscape="http://www.inkscape.org/namespaces/inkscape"
   xmlns:sodipodi="http://sodipodi.sourceforge.net/DTD/sodipodi-0.dtd"
   xmlns="http://www.w3.org/2000/svg"
   xmlns:svg="http://www.w3.org/2000/svg">
  <defs
     id="defs8" />
  <sodipodi:namedview
     id="namedview6"
     pagecolor="#ffffff"
     bordercolor="#000000"
     borderopacity="0.25"
     inkscape:showpageshadow="2"
     inkscape:pageopacity="0.0"
     inkscape:pagecheckerboard="0"
     inkscape:deskcolor="#d1d1d1"
     showgrid="false"
     inkscape:zoom="59.214286"
     inkscape:cx="6.9915561"
     inkscape:cy="7.0084439"
     inkscape:window-width="1920"
     inkscape:window-height="1009"
     inkscape:window-x="1912"
     inkscape:window-y="-8"
     inkscape:window-maximized="1"
     inkscape:current-layer="svg4" />
  <path
     d="m9.120985 12.356765c-1.29977-.3501-2.37339-.6464-2.38582-.6586-.0124-.012-.16883-.2837-.34756-.6035l-.32498-.5815-.72582-.01-.72582-.01-1.71574-1.7187999c-.94366-.9454-1.71575-1.7396-1.71575-1.765 0-.025.77957-.8274 1.73237-1.7824l1.73237-1.7364.7092-.01.7092-.01.32497-.5814c.17873-.3198.33507-.5913.34741-.6034.0277-.027 4.8125-1.30110001 4.8281-1.2856.006.01.29159 1.0869.63427 2.4018l.62306 2.3907-.35596.6072-.35596.6072.35599.6072.35599.6073-.62701 2.3284999c-.72089 2.6771-.65653 2.4479-.68617 2.4432-.0127 0-1.08656-.29-2.38634-.6401zm.64175-1.226c-.0263-.042-.48546-.8452-1.02026-1.7850999-.53479-.9399-.97695-1.7142-.98256-1.7206-.0335-.038-4.14383-.09-4.14383-.053 0 .015.17929.2104.39843.4347.45084.4613 1.73887 1.8046 1.99051 2.0756999l.16609.179.81219.2141c1.05867.2791 2.21041.5867 2.48735.6643.12098.034.24697.063.27997.064.0539 0 .0551 0 .0121-.074zm1.58369-2.3518999.49505-1.7683-.49505-1.7682c-.27228-.9725-.50577-1.7797-.51888-1.7937-.0131-.014-.48403.7816-1.04651 1.7682l-1.02269 1.7937 1.02269 1.7938c.56248.9865 1.03341 1.7821999 1.04651 1.7681999s.2466-.8211999.51888-1.7936999zm-3.61365-2.3898c.0487-.048 2.07546-3.5531 2.06223-3.5663-.005 0-.3508.08-.76771.1902-.73886.1948-2.49916.6556-2.73931.7171-.0851.022-.19829.1119-.38938.3104-.14814.1539-.72993.7539-1.29286 1.3334s-1.02351 1.0619-1.02351 1.072c0 .01.92514.01 2.05587-.0001 1.46364-.013 2.06705-.029 2.09467-.057z"
     id="path2" />
</svg>
